<?xml version="1.0" encoding="UTF-8" standalone="no"?>
<!-- Created with Inkscape (http://www.inkscape.org/) -->

<svg
   xmlns:dc="http://purl.org/dc/elements/1.1/"
   xmlns:cc="http://creativecommons.org/ns#"
   xmlns:rdf="http://www.w3.org/1999/02/22-rdf-syntax-ns#"
   xmlns:svg="http://www.w3.org/2000/svg"
   xmlns="http://www.w3.org/2000/svg"
   xmlns:sodipodi="http://sodipodi.sourceforge.net/DTD/sodipodi-0.dtd"
   xmlns:inkscape="http://www.inkscape.org/namespaces/inkscape"
   width="16"
   height="16"
   viewBox="0 0 16 16"
   id="svg2"
   version="1.1"
   inkscape:version="0.91 r13725"
   sodipodi:docname="const.svg">
  <defs
     id="defs4" />
  <sodipodi:namedview
     id="base"
     pagecolor="#ffffff"
     bordercolor="#666666"
     borderopacity="1.0"
     inkscape:pageopacity="0.0"
     inkscape:pageshadow="2"
     inkscape:zoom="15.839192"
     inkscape:cx="11.453759"
     inkscape:cy="6.6758049"
     inkscape:document-units="px"
     inkscape:current-layer="layer1"
     showgrid="false"
     units="px"
     inkscape:window-width="1280"
     inkscape:window-height="667"
     inkscape:window-x="-8"
     inkscape:window-y="-8"
     inkscape:window-maximized="1" />
  <metadata
     id="metadata7">
    <rdf:RDF>
      <cc:Work
         rdf:about="">
        <dc:format>image/svg+xml</dc:format>
        <dc:type
           rdf:resource="http://purl.org/dc/dcmitype/StillImage" />
        <dc:title></dc:title>
      </cc:Work>
    </rdf:RDF>
  </metadata>
  <g
     inkscape:label="Layer 1"
     inkscape:groupmode="layer"
     id="layer1"
     transform="translate(0,-1036.36)">
    <path
       style="fill:#b3b3b3;fill-opacity:1;stroke:none;stroke-width:1.5;stroke-linecap:round;stroke-linejoin:round;stroke-miterlimit:4;stroke-dasharray:none;stroke-opacity:1"
       d="m 8,0.97265625 c -2.7495909,0 -5,2.25050005 -5,4.99999995 L 3,7 2,7 2,15 14,15 14,7 13,7 13,5.9726562 C 13,3.2231563 10.749591,0.97265625 8,0.97265625 Z M 8,2.9726562 c 1.668687,0 3,1.3314001 3,3 L 11,7 5,7 5,5.9726562 c 0,-1.6685999 1.3313129,-3 3,-3 z M 8,8.2 c 0.8284271,0 1.5,0.6715729 1.5,1.5 -7.956e-4,0.425867 -0.1825759,0.831323 -0.5,1.115234 L 9,11.7 c 0.019125,1.352323 -2.0191252,1.352323 -2,0 L 7,10.815234 C 6.6825759,10.531323 6.5007956,10.125867 6.5,9.7 6.5,8.8715729 7.1715729,8.2 8,8.2 Z"
       transform="translate(0,1036.36)"
       id="rect4136"
       inkscape:connector-curvature="0"
       sodipodi:nodetypes="ssccccccssssccsssccccccs" />
  </g>
</svg>
